STARTFONT 2.1
COMMENT
COMMENT Converted from OpenType font "debugme.ttf" by "otf2bdf 3.0".
COMMENT
FONT -FreeType-International Font of Mystery-Medium-R-Normal--33-120-200-200-P-79-ISO10646-1
SIZE 12 200 200
FONTBOUNDINGBOX 8 7 0 0
STARTPROPERTIES 19
FOUNDRY "FreeType"
FAMILY_NAME "International Font of Mystery"
WEIGHT_NAME "Medium"
SLANT "R"
SETWIDTH_NAME "Normal"
ADD_STYLE_NAME ""
PIXEL_SIZE 33
POINT_SIZE 120
RESOLUTION_X 200
RESOLUTION_Y 200
SPACING "P"
AVERAGE_WIDTH 79
CHARSET_REGISTRY "ISO10646"
CHARSET_ENCODING "1"
FONT_ASCENT 8
FONT_DESCENT 0
COPYRIGHT "© Rufus 2009"
_OTF_FONTFILE "debugme.ttf"
_OTF_PSNAME "InternationalFontofMystery"
ENDPROPERTIES
CHARS 65
STARTCHAR 0020
ENCODING 32
SWIDTH 240 0
DWIDTH 8 0
BBX 0 0 0 0
BITMAP
ENDCHAR
STARTCHAR 002F
ENCODING 47
SWIDTH 240 0
DWIDTH 8 0
BBX 6 6 0 0
BITMAP
04
08
10
20
40
80
ENDCHAR
STARTCHAR 0030
ENCODING 48
SWIDTH 240 0
DWIDTH 8 0
BBX 7 7 0 0
BITMAP
3C
66
4E
D6
E4
CC
78
ENDCHAR
STARTCHAR 0031
ENCODING 49
SWIDTH 240 0
DWIDTH 8 0
BBX 6 7 0 0
BITMAP
3C
0C
18
18
30
30
FC
ENDCHAR
STARTCHAR 0032
ENCODING 50
SWIDTH 240 0
DWIDTH 8 0
BBX 7 7 0 0
BITMAP
3C
66
06
1C
70
C0
FC
ENDCHAR
STARTCHAR 0033
ENCODING 51
SWIDTH 240 0
DWIDTH 8 0
BBX 7 7 0 0
BITMAP
3C
46
0E
38
0C
9C
78
ENDCHAR
STARTCHAR 0034
ENCODING 52
SWIDTH 240 0
DWIDTH 8 0
BBX 7 7 0 0
BITMAP
66
6C
4C
D8
FE
30
70
ENDCHAR
STARTCHAR 0035
ENCODING 53
SWIDTH 240 0
DWIDTH 8 0
BBX 7 7 0 0
BITMAP
3E
30
60
78
0C
9C
78
ENDCHAR
STARTCHAR 0036
ENCODING 54
SWIDTH 240 0
DWIDTH 8 0
BBX 8 7 0 0
BITMAP
3E
63
60
FC
C6
CE
7C
ENDCHAR
STARTCHAR 0037
ENCODING 55
SWIDTH 240 0
DWIDTH 8 0
BBX 6 7 0 0
BITMAP
FC
0C
18
18
30
60
E0
ENDCHAR
STARTCHAR 0038
ENCODING 56
SWIDTH 240 0
DWIDTH 8 0
BBX 8 7 0 0
BITMAP
3E
63
63
3C
C6
C6
7C
ENDCHAR
STARTCHAR 0039
ENCODING 57
SWIDTH 240 0
DWIDTH 8 0
BBX 8 7 0 0
BITMAP
3E
63
63
3E
06
C6
7C
ENDCHAR
STARTCHAR 0041
ENCODING 65
SWIDTH 240 0
DWIDTH 8 0
BBX 8 7 0 0
BITMAP
1E
23
63
7F
66
CE
CE
ENDCHAR
STARTCHAR 0042
ENCODING 66
SWIDTH 240 0
DWIDTH 8 0
BBX 8 7 0 0
BITMAP
7E
63
63
7C
C6
C6
FC
ENDCHAR
STARTCHAR 0043
ENCODING 67
SWIDTH 240 0
DWIDTH 8 0
BBX 8 7 0 0
BITMAP
3E
73
60
E0
C0
E6
7C
ENDCHAR
STARTCHAR 0044
ENCODING 68
SWIDTH 240 0
DWIDTH 8 0
BBX 8 7 0 0
BITMAP
F8
66
63
63
C6
CE
F8
ENDCHAR
STARTCHAR 0045
ENCODING 69
SWIDTH 240 0
DWIDTH 8 0
BBX 8 7 0 0
BITMAP
3F
30
70
7C
E0
E0
FE
ENDCHAR
STARTCHAR 0046
ENCODING 70
SWIDTH 240 0
DWIDTH 8 0
BBX 8 7 0 0
BITMAP
3F
30
60
7C
E0
E0
E0
ENDCHAR
STARTCHAR 0047
ENCODING 71
SWIDTH 240 0
DWIDTH 8 0
BBX 8 7 0 0
BITMAP
3E
73
60
E0
CE
E6
7C
ENDCHAR
STARTCHAR 0048
ENCODING 72
SWIDTH 240 0
DWIDTH 8 0
BBX 8 7 0 0
BITMAP
33
33
63
7E
E6
E6
C6
ENDCHAR
STARTCHAR 0049
ENCODING 73
SWIDTH 240 0
DWIDTH 8 0
BBX 7 7 0 0
BITMAP
3E
1C
18
38
30
70
F8
ENDCHAR
STARTCHAR 004A
ENCODING 74
SWIDTH 240 0
DWIDTH 8 0
BBX 8 7 0 0
BITMAP
07
03
03
07
E6
CE
7C
ENDCHAR
STARTCHAR 004B
ENCODING 75
SWIDTH 240 0
DWIDTH 8 0
BBX 8 7 0 0
BITMAP
67
6E
78
7C
EE
E6
E6
ENDCHAR
STARTCHAR 004C
ENCODING 76
SWIDTH 240 0
DWIDTH 8 0
BBX 7 7 0 0
BITMAP
70
70
70
60
E0
E2
FE
ENDCHAR
STARTCHAR 004D
ENCODING 77
SWIDTH 240 0
DWIDTH 8 0
BBX 8 7 0 0
BITMAP
67
6F
7B
D2
C6
C6
C6
ENDCHAR
STARTCHAR 004E
ENCODING 78
SWIDTH 240 0
DWIDTH 8 0
BBX 8 7 0 0
BITMAP
63
63
73
FE
CE
C6
C6
ENDCHAR
STARTCHAR 004F
ENCODING 79
SWIDTH 240 0
DWIDTH 8 0
BBX 8 7 0 0
BITMAP
3E
67
47
C7
C6
EE
7C
ENDCHAR
STARTCHAR 0050
ENCODING 80
SWIDTH 240 0
DWIDTH 8 0
BBX 8 7 0 0
BITMAP
3E
33
63
7E
E0
E0
E0
ENDCHAR
STARTCHAR 0051
ENCODING 81
SWIDTH 240 0
DWIDTH 8 0
BBX 7 7 0 0
BITMAP
3C
76
66
C6
F4
CE
7E
ENDCHAR
STARTCHAR 0052
ENCODING 82
SWIDTH 240 0
DWIDTH 8 0
BBX 8 7 0 0
BITMAP
3E
31
63
7E
E4
E6
E6
ENDCHAR
STARTCHAR 0053
ENCODING 83
SWIDTH 240 0
DWIDTH 8 0
BBX 8 7 0 0
BITMAP
3E
63
63
78
0E
C6
7C
ENDCHAR
STARTCHAR 0054
ENCODING 84
SWIDTH 240 0
DWIDTH 8 0
BBX 7 7 0 0
BITMAP
7E
FE
18
18
30
70
70
ENDCHAR
STARTCHAR 0055
ENCODING 85
SWIDTH 240 0
DWIDTH 8 0
BBX 8 7 0 0
BITMAP
63
63
63
E3
C6
C6
7C
ENDCHAR
STARTCHAR 0056
ENCODING 86
SWIDTH 240 0
DWIDTH 8 0
BBX 7 7 0 0
BITMAP
C6
C6
CE
CC
F8
F0
60
ENDCHAR
STARTCHAR 0057
ENCODING 87
SWIDTH 240 0
DWIDTH 8 0
BBX 8 7 0 0
BITMAP
63
6B
6B
FF
FE
EE
6C
ENDCHAR
STARTCHAR 0058
ENCODING 88
SWIDTH 240 0
DWIDTH 8 0
BBX 8 7 0 0
BITMAP
1B
36
3C
18
3C
6C
D8
ENDCHAR
STARTCHAR 0059
ENCODING 89
SWIDTH 240 0
DWIDTH 8 0
BBX 7 7 0 0
BITMAP
66
66
6E
3C
38
70
E0
ENDCHAR
STARTCHAR 005A
ENCODING 90
SWIDTH 240 0
DWIDTH 8 0
BBX 8 7 0 0
BITMAP
FE
C6
0C
18
30
63
7F
ENDCHAR
STARTCHAR 0061
ENCODING 97
SWIDTH 240 0
DWIDTH 8 0
BBX 8 7 0 0
BITMAP
1E
23
63
7F
66
CE
CE
ENDCHAR
STARTCHAR 0062
ENCODING 98
SWIDTH 240 0
DWIDTH 8 0
BBX 8 7 0 0
BITMAP
7E
63
63
7C
C6
C6
FC
ENDCHAR
STARTCHAR 0063
ENCODING 99
SWIDTH 240 0
DWIDTH 8 0
BBX 8 7 0 0
BITMAP
3E
73
60
E0
C0
E6
7C
ENDCHAR
STARTCHAR 0064
ENCODING 100
SWIDTH 240 0
DWIDTH 8 0
BBX 8 7 0 0
BITMAP
F8
66
63
63
C6
CE
F8
ENDCHAR
STARTCHAR 0065
ENCODING 101
SWIDTH 240 0
DWIDTH 8 0
BBX 8 7 0 0
BITMAP
3F
30
70
7C
E0
E0
FE
ENDCHAR
STARTCHAR 0066
ENCODING 102
SWIDTH 240 0
DWIDTH 8 0
BBX 8 7 0 0
BITMAP
3F
30
60
7C
E0
E0
E0
ENDCHAR
STARTCHAR 0067
ENCODING 103
SWIDTH 240 0
DWIDTH 8 0
BBX 8 7 0 0
BITMAP
3E
73
60
E0
CE
E6
7C
ENDCHAR
STARTCHAR 0068
ENCODING 104
SWIDTH 240 0
DWIDTH 8 0
BBX 8 7 0 0
BITMAP
33
33
63
7E
E6
E6
C6
ENDCHAR
STARTCHAR 0069
ENCODING 105
SWIDTH 240 0
DWIDTH 8 0
BBX 7 7 0 0
BITMAP
3E
1C
18
38
30
70
F8
ENDCHAR
STARTCHAR 006A
ENCODING 106
SWIDTH 240 0
DWIDTH 8 0
BBX 8 7 0 0
BITMAP
07
03
03
07
E6
CE
7C
ENDCHAR
STARTCHAR 006B
ENCODING 107
SWIDTH 240 0
DWIDTH 8 0
BBX 8 7 0 0
BITMAP
67
6E
78
7C
EE
E6
E6
ENDCHAR
STARTCHAR 006C
ENCODING 108
SWIDTH 240 0
DWIDTH 8 0
BBX 7 7 0 0
BITMAP
70
70
70
60
E0
E2
FE
ENDCHAR
STARTCHAR 006D
ENCODING 109
SWIDTH 240 0
DWIDTH 8 0
BBX 8 7 0 0
BITMAP
67
6F
7B
D2
C6
C6
C6
ENDCHAR
STARTCHAR 006E
ENCODING 110
SWIDTH 240 0
DWIDTH 8 0
BBX 8 7 0 0
BITMAP
63
63
73
FE
CE
C6
C6
ENDCHAR
STARTCHAR 006F
ENCODING 111
SWIDTH 240 0
DWIDTH 8 0
BBX 8 7 0 0
BITMAP
3E
67
47
C7
C6
EE
7C
ENDCHAR
STARTCHAR 0070
ENCODING 112
SWIDTH 240 0
DWIDTH 8 0
BBX 8 7 0 0
BITMAP
3E
33
63
7E
E0
E0
E0
ENDCHAR
STARTCHAR 0071
ENCODING 113
SWIDTH 240 0
DWIDTH 8 0
BBX 7 7 0 0
BITMAP
3C
76
66
C6
F4
CE
7E
ENDCHAR
STARTCHAR 0072
ENCODING 114
SWIDTH 240 0
DWIDTH 8 0
BBX 8 7 0 0
BITMAP
3E
31
63
7E
E4
E6
E6
ENDCHAR
STARTCHAR 0073
ENCODING 115
SWIDTH 240 0
DWIDTH 8 0
BBX 8 7 0 0
BITMAP
3E
63
63
78
0E
C6
7C
ENDCHAR
STARTCHAR 0074
ENCODING 116
SWIDTH 240 0
DWIDTH 8 0
BBX 7 7 0 0
BITMAP
7E
FE
18
18
30
70
70
ENDCHAR
STARTCHAR 0075
ENCODING 117
SWIDTH 240 0
DWIDTH 8 0
BBX 8 7 0 0
BITMAP
63
63
63
E3
C6
C6
7C
ENDCHAR
STARTCHAR 0076
ENCODING 118
SWIDTH 240 0
DWIDTH 8 0
BBX 7 7 0 0
BITMAP
C6
C6
CE
CC
F8
F0
60
ENDCHAR
STARTCHAR 0077
ENCODING 119
SWIDTH 240 0
DWIDTH 8 0
BBX 8 7 0 0
BITMAP
63
6B
6B
FF
FE
EE
6C
ENDCHAR
STARTCHAR 0078
ENCODING 120
SWIDTH 240 0
DWIDTH 8 0
BBX 8 7 0 0
BITMAP
1B
36
3C
18
3C
6C
D8
ENDCHAR
STARTCHAR 0079
ENCODING 121
SWIDTH 240 0
DWIDTH 8 0
BBX 7 7 0 0
BITMAP
66
66
6E
3C
38
70
E0
ENDCHAR
STARTCHAR 007A
ENCODING 122
SWIDTH 240 0
DWIDTH 8 0
BBX 8 7 0 0
BITMAP
FE
C6
0C
18
30
63
7F
ENDCHAR
STARTCHAR 00A0
ENCODING 160
SWIDTH 240 0
DWIDTH 8 0
BBX 0 0 0 0
BITMAP
ENDCHAR
ENDFONT
